<svg xmlns="http://www.w3.org/2000/svg" width="300" height="450" viewBox="0 0 300 450">
  <rect width="300" height="450" fill="#1A1A1A"/>
  <rect x="0" y="0" width="300" height="450" fill="#242424"/>
  <!-- Film strip top -->
  <rect x="0" y="20" width="300" height="40" fill="#1A1A1A"/>
  <rect x="10" y="27" width="30" height="26" rx="3" fill="#333"/>
  <rect x="55" y="27" width="30" height="26" rx="3" fill="#333"/>
  <rect x="100" y="27" width="30" height="26" rx="3" fill="#333"/>
  <rect x="145" y="27" width="30" height="26" rx="3" fill="#333"/>
  <rect x="190" y="27" width="30" height="26" rx="3" fill="#333"/>
  <rect x="235" y="27" width="30" height="26" rx="3" fill="#333"/>
  <rect x="265" y="27" width="30" height="26" rx="3" fill="#333"/>
  <!-- Film strip bottom -->
  <rect x="0" y="390" width="300" height="40" fill="#1A1A1A"/>
  <rect x="10" y="397" width="30" height="26" rx="3" fill="#333"/>
  <rect x="55" y="397" width="30" height="26" rx="3" fill="#333"/>
  <rect x="100" y="397" width="30" height="26" rx="3" fill="#333"/>
  <rect x="145" y="397" width="30" height="26" rx="3" fill="#333"/>
  <rect x="190" y="397" width="30" height="26" rx="3" fill="#333"/>
  <rect x="235" y="397" width="30" height="26" rx="3" fill="#333"/>
  <rect x="265" y="397" width="30" height="26" rx="3" fill="#333"/>
  <!-- Play icon -->
  <circle cx="150" cy="225" r="50" fill="#2A2A2A" stroke="#3A3A3A" stroke-width="2"/>
  <polygon points="138,205 138,245 175,225" fill="#E63946"/>
  <!-- Label -->
  <text x="150" y="300" font-family="system-ui, sans-serif" font-size="13" fill="#606060" text-anchor="middle">No Image Available</text>
</svg>
